<?xml version="1.0" standalone="no"?>
<!DOCTYPE svg PUBLIC "-//W3C//DTD SVG 20010904//EN"
 "http://www.w3.org/TR/2001/REC-SVG-20010904/DTD/svg10.dtd">
<svg version="1.0" xmlns="http://www.w3.org/2000/svg"
 width="256.000000pt" height="256.000000pt" viewBox="0 0 256.000000 256.000000"
 preserveAspectRatio="xMidYMid meet">
<metadata>
Created by potrace 1.11, written by Peter Selinger 2001-2013
</metadata>
<g transform="translate(0.000000,256.000000) scale(0.100000,-0.100000)"
fill="#000000" stroke="none">
<path d="M0 1280 l0 -1280 1280 0 1280 0 0 1280 0 1280 -1280 0 -1280 0 0
-1280z m830 474 c0 -26 -311 -877 -326 -893 -41 -44 -11 57 137 463 105 291
166 446 175 446 8 0 14 -7 14 -16z m280 -434 c111 -305 160 -454 153 -461 -7
-7 -13 -6 -20 3 -6 7 -77 196 -159 420 -82 224 -151 404 -155 400 -3 -4 -39
-99 -79 -212 -80 -223 -95 -260 -110 -260 -20 0 -8 44 80 286 50 137 92 255
95 262 16 43 41 -13 195 -438z m350 10 l0 -440 149 0 c83 0 152 -4 155 -9 16
-25 -27 -31 -175 -29 l-154 3 -3 458 c-2 402 0 457 13 457 13 0 15 -54 15
-440z m376 413 c95 -50 147 -134 146 -237 0 -85 -34 -163 -56 -127 -3 5 1 28
9 51 28 80 13 155 -44 221 -53 63 -97 79 -218 79 l-103 0 0 -365 0 -365 104 0
c91 0 107 3 137 23 48 32 67 89 46 139 -24 57 -66 78 -160 78 -69 0 -78 2 -75
18 2 13 15 18 53 20 139 10 225 -52 225 -161 0 -53 -30 -102 -80 -131 -30 -18
-52 -21 -155 -21 l-120 0 -3 404 -2 403 127 -4 c107 -3 135 -7 169 -25z m-52
-97 c65 -27 104 -109 86 -178 -11 -40 -26 -56 -41 -41 -6 6 -5 22 2 42 16 44
-3 105 -38 129 -17 10 -55 19 -97 22 -57 4 -71 8 -74 23 -3 15 5 17 63 17 36
0 80 -6 99 -14z m-741 -464 c66 -181 107 -308 103 -318 -5 -12 -10 -14 -17 -7
-17 17 -229 607 -224 621 3 8 10 12 17 10 6 -2 60 -140 121 -306z m807 181
c65 -29 105 -66 134 -125 44 -88 33 -201 -27 -279 -39 -51 -120 -100 -137 -83
-9 9 2 21 42 47 63 43 93 85 107 149 20 89 -14 178 -90 234 -45 33 -90 44
-181 44 -58 0 -78 3 -78 13 0 8 3 17 8 21 14 15 176 0 222 -21z m-891 -202
c33 -21 -4 -31 -117 -31 l-117 0 -45 -126 c-51 -144 -61 -162 -77 -142 -8 10
3 48 41 148 28 75 55 141 59 148 10 14 234 17 256 3z m40 -114 c6 -8 8 -17 4
-20 -11 -11 -251 -8 -258 3 -15 24 12 30 124 30 87 0 122 -4 130 -13z"/>
</g>
</svg>
